<svg width="20" height="18" viewBox="0 0 20 18" fill="none" xmlns="http://www.w3.org/2000/svg">
<path d="M17.3664 1.63501L14.0914 2.22001L16.3747 4.87501L18.0164 4.57501L17.3664 1.63501ZM11.6414 2.65501L9.9997 2.94751L12.2914 5.59501L13.9247 5.30251L11.6414 2.65501ZM7.55803 3.37501L5.91637 3.68251L8.20803 6.33001L9.84136 6.03751L7.55803 3.37501ZM3.46637 4.12501L2.6497 4.26751C2.21669 4.34537 1.8357 4.57471 1.5904 4.90516C1.3451 5.23562 1.25553 5.64017 1.34137 6.03001L1.66637 7.50001L5.7497 6.77251L3.46637 4.12501ZM1.66637 7.50001V15C1.66637 15.8325 2.41637 16.5 3.33303 16.5H16.6664C17.5914 16.5 18.333 15.8325 18.333 15V7.50001H1.66637Z" fill="white"/>
</svg>
